<svg width="11" height="19" viewBox="0 0 11 19" fill="none" xmlns="http://www.w3.org/2000/svg">
<path d="M6.8457 0.0253906V2.90625H5.32227V0.0253906H6.8457ZM6.66016 15.9727V18.5996H5.13672V15.9727H6.66016ZM7.73438 12.7695C7.73438 12.3984 7.66602 12.0827 7.5293 11.8223C7.39909 11.5618 7.18424 11.3307 6.88477 11.1289C6.5918 10.9271 6.19466 10.7318 5.69336 10.543C4.84701 10.2174 4.10156 9.8724 3.45703 9.50781C2.81901 9.13672 2.32096 8.67773 1.96289 8.13086C1.60482 7.57747 1.42578 6.8776 1.42578 6.03125C1.42578 5.22396 1.61784 4.52409 2.00195 3.93164C2.38607 3.33919 2.91667 2.88346 3.59375 2.56445C4.27734 2.23893 5.07161 2.07617 5.97656 2.07617C6.66667 2.07617 7.29167 2.18034 7.85156 2.38867C8.41146 2.59049 8.89323 2.88997 9.29688 3.28711C9.70052 3.67773 10.0098 4.15625 10.2246 4.72266C10.4395 5.28906 10.5469 5.93685 10.5469 6.66602H7.74414C7.74414 6.27539 7.70182 5.93034 7.61719 5.63086C7.53255 5.33138 7.40885 5.08073 7.24609 4.87891C7.08984 4.67708 6.90104 4.52734 6.67969 4.42969C6.45833 4.32552 6.21419 4.27344 5.94727 4.27344C5.55013 4.27344 5.22461 4.35156 4.9707 4.50781C4.7168 4.66406 4.53125 4.87565 4.41406 5.14258C4.30339 5.40299 4.24805 5.70247 4.24805 6.04102C4.24805 6.37305 4.30664 6.66276 4.42383 6.91016C4.54753 7.15755 4.75911 7.38542 5.05859 7.59375C5.35807 7.79557 5.76823 8.00391 6.28906 8.21875C7.13542 8.54427 7.8776 8.89583 8.51562 9.27344C9.15365 9.65104 9.65169 10.1133 10.0098 10.6602C10.3678 11.207 10.5469 11.9036 10.5469 12.75C10.5469 13.5898 10.3516 14.306 9.96094 14.8984C9.57031 15.4844 9.02344 15.9336 8.32031 16.2461C7.61719 16.5521 6.80339 16.7051 5.87891 16.7051C5.27995 16.7051 4.68424 16.627 4.0918 16.4707C3.49935 16.3079 2.96224 16.0475 2.48047 15.6895C1.9987 15.3314 1.61458 14.8561 1.32812 14.2637C1.04167 13.6647 0.898438 12.929 0.898438 12.0566H3.71094C3.71094 12.5319 3.77279 12.929 3.89648 13.248C4.02018 13.5605 4.18294 13.8112 4.38477 14C4.5931 14.1823 4.82747 14.3125 5.08789 14.3906C5.34831 14.4688 5.61198 14.5078 5.87891 14.5078C6.29557 14.5078 6.63737 14.4329 6.9043 14.2832C7.17773 14.1335 7.38281 13.9284 7.51953 13.668C7.66276 13.401 7.73438 13.1016 7.73438 12.7695Z" fill="#D28651"/>
</svg>
