<svg width="132" height="63" viewBox="0 0 132 63" fill="none" xmlns="http://www.w3.org/2000/svg">
<g filter="url(#filter0_d_160_72)">
<path fill-rule="evenodd" clip-rule="evenodd" d="M4 36.5276L20.844 54.7902L37.6867 36.5276L20.844 18.2638L4 36.5276Z" fill="#FF8200"/>
<path fill-rule="evenodd" clip-rule="evenodd" d="M20.844 0L4 18.2638L20.844 36.5264L37.6874 18.2638L20.844 0Z" fill="#FF6900"/>
<path fill-rule="evenodd" clip-rule="evenodd" d="M45.8828 33.729L48.1243 30.8178C49.676 32.2072 51.3013 33.088 53.272 33.088C54.8241 33.088 55.7601 32.4204 55.7601 31.3256V31.2719C55.7601 30.2305 55.1692 29.6964 52.2867 28.8947C48.8136 27.9332 46.5722 26.8925 46.5722 23.1804V23.1259C46.5722 19.7347 49.0844 17.4907 52.6068 17.4907C55.1198 17.4907 57.2617 18.3453 59.0107 19.8679L57.0404 22.9661C55.5135 21.8176 54.0108 21.1229 52.5574 21.1229C51.1041 21.1229 50.3412 21.8439 50.3412 22.7529V22.8054C50.3412 24.0349 51.08 24.4354 54.0602 25.2625C57.5574 26.2515 59.5281 27.6135 59.5281 30.8715V30.9251C59.5281 34.6369 56.9174 36.7198 53.1985 36.7198C50.5871 36.7198 47.9519 35.732 45.8828 33.729Z" fill="#1D1C21"/>
<path fill-rule="evenodd" clip-rule="evenodd" d="M71.8194 29.3756V29.3219C71.8194 27.2116 70.4155 25.3696 68.3463 25.3696C66.2033 25.3696 64.9223 27.159 64.9223 29.2694V29.3219C64.9223 31.4323 66.3263 33.2746 68.3954 33.2746C70.5384 33.2746 71.8194 31.4859 71.8194 29.3756ZM61.2275 29.3756V29.3219C61.2275 25.2097 64.2824 21.8706 68.3954 21.8706C72.4839 21.8706 75.5142 25.156 75.5142 29.2694V29.3219C75.5142 33.4356 72.4594 36.7732 68.3463 36.7732C64.2571 36.7732 61.2275 33.4889 61.2275 29.3756Z" fill="#1D1C21"/>
<path fill-rule="evenodd" clip-rule="evenodd" d="M77.1143 29.3756V29.3219C77.1143 25.236 79.9967 21.8706 84.0355 21.8706C86.5236 21.8706 88.0746 22.7788 89.3062 24.2744L87.0157 26.9447C86.1782 25.9843 85.341 25.3696 84.0113 25.3696C82.1394 25.3696 80.809 27.159 80.809 29.2694V29.3219C80.809 31.5122 82.1142 33.2746 84.1591 33.2746C85.4146 33.2746 86.277 32.6873 87.1887 31.752L89.3808 34.1566C88.0995 35.6781 86.6213 36.7732 83.9861 36.7732C80.0209 36.7732 77.1143 33.4615 77.1143 29.3756Z" fill="#1D1C21"/>
<path fill-rule="evenodd" clip-rule="evenodd" d="M91.252 31.4053V22.1379H94.9958V30.1233C94.9958 32.0464 95.8333 33.0342 97.2614 33.0342C98.6906 33.0342 99.6013 32.0464 99.6013 30.1233V22.1379H103.345V36.4528H99.6013V34.4236C98.7399 35.6249 97.631 36.72 95.7345 36.72C92.9025 36.72 91.252 34.6904 91.252 31.4053Z" fill="#1D1C21"/>
<path fill-rule="evenodd" clip-rule="evenodd" d="M106.228 22.1381H109.971V25.0231C110.735 23.0459 111.966 21.7639 114.182 21.8713V26.1178H113.986C111.498 26.1178 109.971 27.7459 109.971 31.1645V36.453H106.228V22.1381Z" fill="#1D1C21"/>
<path fill-rule="evenodd" clip-rule="evenodd" d="M124.355 28.1735C124.133 26.3574 123.148 25.129 121.572 25.129C120.02 25.129 119.01 26.3311 118.716 28.1735H124.355ZM115.045 29.3756V29.3223C115.045 25.236 117.73 21.871 121.572 21.871C125.981 21.871 128 25.5839 128 29.6428C128 29.9633 127.976 30.3375 127.952 30.7113H118.764C119.133 32.554 120.316 33.5156 121.991 33.5156C123.246 33.5156 124.158 33.0877 125.193 32.0462L127.336 34.1029C126.104 35.7591 124.331 36.7736 121.941 36.7736C117.976 36.7736 115.045 33.7561 115.045 29.3756Z" fill="#1D1C21"/>
<path fill-rule="evenodd" clip-rule="evenodd" d="M20.8438 36.5168H37.6871L29.2572 27.3948L20.8438 36.5168Z" fill="#141B4D"/>
</g>
<defs>
<filter id="filter0_d_160_72" x="0" y="0" width="132" height="62.7902" filterUnits="userSpaceOnUse" color-interpolation-filters="sRGB">
<feFlood flood-opacity="0" result="BackgroundImageFix"/>
<feColorMatrix in="SourceAlpha" type="matrix" values="0 0 0 0 0 0 0 0 0 0 0 0 0 0 0 0 0 0 127 0" result="hardAlpha"/>
<feOffset dy="4"/>
<feGaussianBlur stdDeviation="2"/>
<feComposite in2="hardAlpha" operator="out"/>
<feColorMatrix type="matrix" values="0 0 0 0 0 0 0 0 0 0 0 0 0 0 0 0 0 0 0.25 0"/>
<feBlend mode="normal" in2="BackgroundImageFix" result="effect1_dropShadow_160_72"/>
<feBlend mode="normal" in="SourceGraphic" in2="effect1_dropShadow_160_72" result="shape"/>
</filter>
</defs>
</svg>
